<svg width="24" height="24" viewBox="0 0 24 24" fill="none" xmlns="http://www.w3.org/2000/svg">
<path d="M7.67489 21.982C6.36392 21.982 5.04815 22.0233 3.73719 21.9775C2.18611 21.9178 1 20.6752 1 19.194C1 14.4113 1.0096 9.62852 1 4.84119C1 3.20414 2.33978 2.06233 3.88125 2.02106C5.49475 1.97979 7.11305 2.01189 8.73135 2.01189C8.76016 2.01189 8.79858 1.99814 8.81298 2.04399C8.80338 2.12653 8.71694 2.1357 8.66412 2.1678C7.71331 2.69973 6.84413 3.33712 6.11422 4.12584C4.90889 5.42814 4.07333 6.92304 3.79001 8.66097C3.29059 11.7287 4.29423 14.3333 6.56561 16.5069C6.96899 16.8966 7.02181 17.1993 6.70007 17.722C6.3111 18.3503 5.72044 18.7767 5.09137 19.1665C5.02414 19.2032 4.95691 19.249 4.88968 19.2903C4.78884 19.3729 4.85127 19.4141 4.93771 19.4508C4.95691 19.4921 4.98092 19.5288 5.00974 19.5654C5.56198 20.0332 6.0854 20.533 6.62804 21.0099C6.88255 21.2346 7.13706 21.4685 7.38196 21.7023C7.48281 21.7894 7.65088 21.817 7.67489 21.982Z" fill="#7E9D5D"/>
<path d="M7.67489 21.982C7.65088 21.8215 7.48262 21.7942 7.38178 21.6979C7.13687 21.4594 6.88236 21.2301 6.62785 21.0054C6.08522 20.5285 5.56179 20.0287 5.00955 19.561C4.98074 19.5243 4.95673 19.4876 4.93752 19.4463C6.16205 19.6756 7.35777 19.5197 8.53428 19.1758C8.93285 19.0612 9.33143 18.9465 9.7348 18.8502C10.0085 18.7814 10.2966 18.7952 10.5608 18.8869C13.6053 19.8866 16.6114 19.7948 19.5695 18.5567C20.7748 18.0477 21.8745 17.3324 22.8061 16.4382C22.8541 16.3923 22.8877 16.3236 22.9741 16.319C23.0174 16.3832 22.9933 16.452 22.9933 16.5207V19.2033C23.003 20.7349 21.716 21.9822 20.1121 21.9959H20.0881C18.3593 22.0051 16.6306 21.9959 14.9018 21.9959H7.96283C7.86679 21.9868 7.77093 21.982 7.67489 21.982Z" fill="#7E9D5D"/>
<path d="M8.42399 11.7193C9.1491 11.7193 9.831 11.7147 10.5081 11.7193C10.8875 11.7239 11.0939 11.8752 11.1324 12.1641C11.1756 12.5264 10.9547 12.7694 10.5417 12.774C9.76377 12.7832 8.99063 12.7786 8.2127 12.7786C7.987 12.7786 7.76611 12.7878 7.54041 12.774C7.26189 12.7603 6.98817 12.7052 6.85371 12.4301C6.71925 12.155 6.8153 11.9073 6.99777 11.6826C7.73729 10.7839 8.48161 9.88051 9.22594 8.98174C9.26916 8.92671 9.31237 8.87168 9.35559 8.82124C9.30757 8.74329 9.24034 8.77997 9.18272 8.77539C8.66409 8.7708 8.14067 8.77539 7.62204 8.7708C7.50199 8.7708 7.38194 8.75704 7.26669 8.73412C6.99297 8.6745 6.8249 8.41313 6.88733 8.15633C6.93054 7.98208 7.07461 7.83993 7.25709 7.79866C7.37234 7.77114 7.49239 7.75739 7.61244 7.75739C8.46721 7.7528 9.32678 7.7528 10.1815 7.75739C10.3352 7.7528 10.4841 7.77114 10.6329 7.80783C10.9595 7.9133 11.0987 8.20219 10.9691 8.50484C10.8538 8.76622 10.6714 8.99091 10.4889 9.2156C9.85981 9.98139 9.23074 10.7426 8.60167 11.4992C8.54884 11.5588 8.50082 11.6184 8.42399 11.7193Z" fill="#7E9D5D"/>
<path d="M13.9945 9.3074C14.1098 9.16525 14.2298 9.03227 14.4267 8.99559C14.8061 8.92222 15.1614 9.15608 15.1662 9.52293C15.1807 10.44 15.1759 11.3572 15.1662 12.2743C15.1662 12.5127 15.003 12.7237 14.7677 12.7924C14.5276 12.8796 14.2539 12.8108 14.0954 12.6136C14.0138 12.5173 13.9801 12.499 13.8649 12.5861C13.4279 12.9254 12.9333 12.985 12.4003 12.82C11.5455 12.554 11.1949 11.9166 11.0989 11.1416C10.998 10.3025 11.291 9.58712 12.0785 9.14691C12.7316 8.77548 13.3943 8.80758 13.9945 9.3074ZM12.2946 10.9811C12.3042 11.1829 12.3714 11.3755 12.4963 11.536C12.7556 11.8662 13.2502 11.9349 13.6008 11.6873C13.6584 11.646 13.7112 11.5956 13.7592 11.536C14.0282 11.1875 14.0282 10.6143 13.7592 10.2658C13.6248 10.087 13.4135 9.98148 13.1878 9.9769C12.6596 9.9448 12.2898 10.3346 12.2946 10.9811ZM17.3224 11.0087C17.284 9.83016 18.0955 8.94973 19.248 8.91763C20.4725 8.88095 21.3657 9.66508 21.4041 10.8115C21.4426 11.9716 20.6982 12.7924 19.5505 12.9025C18.2972 13.0217 17.3032 12.155 17.3224 11.0087ZM18.5277 10.8986C18.5181 11.1279 18.5901 11.3526 18.7342 11.5406C18.9983 11.8707 19.4929 11.9349 19.8387 11.6781C19.8915 11.6415 19.9347 11.5956 19.9779 11.5497C20.2564 11.2012 20.2564 10.6143 19.9827 10.2658C19.8483 10.0915 19.637 9.98148 19.4113 9.9769C18.8927 9.94938 18.5277 10.3254 18.5277 10.8986ZM16.8998 10.0961C16.8998 10.8069 16.9046 11.5176 16.8998 12.2284C16.9046 12.554 16.6357 12.8245 16.2947 12.8337C16.2371 12.8337 16.1747 12.8291 16.1171 12.8154C15.877 12.7558 15.6945 12.5127 15.6945 12.2238V8.5783C15.6945 8.36278 15.6897 8.15184 15.6945 7.93632C15.6993 7.58323 15.9346 7.35395 16.2899 7.35395C16.6549 7.34937 16.8998 7.57865 16.8998 7.94549C16.9046 8.66084 16.8998 9.38077 16.8998 10.0961Z" fill="#7E9D5D"/>
</svg>
