<svg width="24" height="24" viewBox="0 0 24 24" fill="none" xmlns="http://www.w3.org/2000/svg">
<path d="M18.25 2H5.75C4.75544 2 3.80161 2.39509 3.09835 3.09835C2.39509 3.80161 2 4.75544 2 5.75L2 18.25C2 19.2446 2.39509 20.1984 3.09835 20.9017C3.80161 21.6049 4.75544 22 5.75 22H18.25C19.2446 22 20.1984 21.6049 20.9017 20.9017C21.6049 20.1984 22 19.2446 22 18.25V5.75C22 4.75544 21.6049 3.80161 20.9017 3.09835C20.1984 2.39509 19.2446 2 18.25 2ZM14.585 11.9987L12.9462 12L12.945 18H10.6962V12H9.19625V9.9325L10.6962 9.93125L10.6938 8.71375C10.6938 7.02625 11.1512 6 13.1375 6H14.7925V8.06875H13.7575C12.9837 8.06875 12.9462 8.3575 12.9462 8.89625L12.9438 9.93125H14.8038L14.585 11.9987Z" fill="#2A6433"/>
</svg>
